<svg viewBox="0 0 24 24" fill="none" xmlns="http://www.w3.org/2000/svg"><g id="SVGRepo_bgCarrier" stroke-width="0"></g><g id="SVGRepo_tracerCarrier" stroke-linecap="round" stroke-linejoin="round"></g><g id="SVGRepo_iconCarrier"> <g id="style=fill"> <g id="eye-open"> <path id="Subtract" fill-rule="evenodd" clip-rule="evenodd" d="M12.0001 3.96997C8.19618 3.96997 4.69299 5.94267 2.28282 9.27342C1.721 10.0475 1.46509 11.0419 1.46509 11.995C1.46509 12.9478 1.7209 13.942 2.28246 14.716C4.69264 18.0471 8.19599 20.02 12.0001 20.02C15.804 20.02 19.3072 18.0473 21.7174 14.7165C22.2792 13.9424 22.5351 12.948 22.5351 11.995C22.5351 11.0421 22.2793 10.0479 21.7177 9.27392C19.3075 5.94286 15.8042 3.96997 12.0001 3.96997ZM9.75012 12C9.75012 10.755 10.7551 9.75 12.0001 9.75C13.2451 9.75 14.2501 10.755 14.2501 12C14.2501 13.245 13.2451 14.25 12.0001 14.25C10.7551 14.25 9.75012 13.245 9.75012 12ZM12.0001 8.25C9.92669 8.25 8.25012 9.92657 8.25012 12C8.25012 14.0734 9.92669 15.75 12.0001 15.75C14.0736 15.75 15.7501 14.0734 15.7501 12C15.7501 9.92657 14.0736 8.25 12.0001 8.25Z" fill="#363636"></path> </g> </g> </g></svg>