<svg xmlns="http://www.w3.org/2000/svg" width="1em" height="1em" viewBox="0 0 24 24"><path fill="white" d="M18.72 4H5.37A1.31 1.31 0 0 0 4 5.25v13.38A1.41 1.41 0 0 0 5.37 20h13.35A1.34 1.34 0 0 0 20 18.63V5.25A1.23 1.23 0 0 0 18.72 4M9 17.34H6.67v-7.13H9ZM7.89 9.13A1.18 1.18 0 0 1 6.67 7.9a1.18 1.18 0 0 1 1.24-1.23A1.18 1.18 0 0 1 9.13 7.9a1.18 1.18 0 0 1-1.24 1.23m9.45 8.21H15v-3.9c0-.93-.33-1.57-1.16-1.57a1.25 1.25 0 0 0-1.17.84a1.4 1.4 0 0 0-.08.57v4.06h-2.3v-7.13h2.3v1a2.32 2.32 0 0 1 2.1-1.21c1.51 0 2.65 1 2.65 3.13Z"/></svg>