<svg xmlns="http://www.w3.org/2000/svg" width="1em" height="1em" viewBox="0 0 24 24"><path fill="white" d="M17.6 6.32A7.85 7.85 0 0 0 12 4a7.94 7.94 0 0 0-6.88 11.89L4 20l4.2-1.1a7.9 7.9 0 0 0 3.79 1a8 8 0 0 0 8-7.93a8 8 0 0 0-2.39-5.65M12 18.53a6.6 6.6 0 0 1-3.36-.92l-.24-.15l-2.49.66l.66-2.43l-.16-.25a6.6 6.6 0 0 1 10.25-8.17a6.65 6.65 0 0 1 2 4.66a6.66 6.66 0 0 1-6.66 6.6m3.61-4.94c-.2-.1-1.17-.58-1.35-.64s-.32-.1-.45.1a9 9 0 0 1-.63.77c-.11.14-.23.15-.43 0a5.33 5.33 0 0 1-2.69-2.35c-.21-.35.2-.33.58-1.08a.38.38 0 0 0 0-.35c0-.1-.45-1.08-.61-1.47s-.32-.33-.45-.34h-.39a.7.7 0 0 0-.53.25A2.2 2.2 0 0 0 8 10.17a3.8 3.8 0 0 0 .81 2.05a8.9 8.9 0 0 0 3.39 3a3.85 3.85 0 0 0 2.38.5a2 2 0 0 0 1.33-.94a1.6 1.6 0 0 0 .12-.94c-.09-.1-.22-.15-.42-.25"/></svg>